<svg width="512" height="512" viewBox="0 0 512 512" fill="none" xmlns="http://www.w3.org/2000/svg">
  <rect width="512" height="512" rx="120" fill="#0F172A"/>
  <rect x="88" y="88" width="336" height="336" rx="72" fill="#F8FAFC"/>
  <path d="M160 160H256V256H160V160Z" fill="#E2E8F0"/>
  <path d="M256 160H352V256H256V160Z" fill="#CBD5E1"/>
  <path d="M160 256H256V352H160V256Z" fill="#CBD5E1"/>
  <path d="M256 256H352V352H256V256Z" fill="#E2E8F0"/>
  <path d="M168 328C168 272.772 212.772 228 268 228H352V284C352 339.228 307.228 384 252 384H168V328Z" fill="#0F766E"/>
  <path d="M168 328C168 272.772 212.772 228 268 228H352" stroke="#0F172A" stroke-width="20" stroke-linecap="round" stroke-linejoin="round"/>
  <path d="M352 228V284C352 339.228 307.228 384 252 384H168" stroke="#0F172A" stroke-width="20" stroke-linecap="round" stroke-linejoin="round"/>
  <path d="M208 160H360" stroke="#2563EB" stroke-width="20" stroke-linecap="round"/>
</svg>
